<svg xmlns="http://www.w3.org/2000/svg" viewBox="0 0 64 64" width="64" height="64"><rect x="0" y="0" width="64" height="64" rx="10" ry="10" fill="#0b0b0d"/><g transform="translate(5.120 38.785) scale(0.02581 -0.02581)"><path d="M118 121 128 602 155 600 144 121Q143 68 164.5 40.0Q186 12 229 12Q232 12 232.0 6.0Q232 0 229 0Q207 0 184.0 1.0Q161 2 132 2Q102 2 77.5 1.0Q53 0 31 0Q28 0 28.0 6.0Q28 12 31 12Q72 12 94.5 40.0Q117 68 118 121ZM826 12Q828 12 828.0 6.0Q828 0 826 0Q800 0 768.0 1.0Q736 2 701 2Q666 2 635.5 1.0Q605 0 580 0Q578 0 578.0 6.0Q578 12 580 12Q628 12 642.0 25.0Q656 38 653 81L632 538L676 607L420 7Q419 3 412.0 3.0Q405 3 403 7L132 542Q96 613 38 613Q35 613 35.0 619.0Q35 625 38 625Q57 625 78.5 624.0Q100 623 115 623Q137 623 154.5 624.0Q172 625 182 625Q196 625 203.5 615.5Q211 606 228 573L453 132L410 56L647 600Q653 613 660.0 619.0Q667 625 677 625Q686 625 696.5 624.0Q707 623 722 623Q752 623 773.0 624.0Q794 625 814 625Q817 625 817.0 619.0Q817 613 814 613Q768 613 746.0 596.0Q724 579 726 538L748 81Q750 52 755.5 37.0Q761 22 777.5 17.0Q794 12 826 12Z" fill="#f4f0e8"/></g><g transform="translate(27.832 38.785) scale(0.02581 -0.02581)"><path d="M190 -13Q148 -13 112.0 10.5Q76 34 54.5 77.0Q33 120 33 181Q33 240 55.0 281.5Q77 323 111.5 349.0Q146 375 186.0 387.0Q226 399 262 399Q298 399 329.0 389.0Q360 379 385 363L366 287Q344 330 315.5 352.5Q287 375 243 375Q188 375 155.5 336.5Q123 298 123 212Q123 155 138.0 114.5Q153 74 180.0 52.5Q207 31 240 31Q281 31 313.0 54.0Q345 77 374 109L383 101Q362 77 333.5 50.5Q305 24 269.5 5.5Q234 -13 190 -13ZM427 714V114Q427 79 434.0 64.5Q441 50 458 50Q466 50 477.5 53.0Q489 56 503 62Q506 64 509.0 58.5Q512 53 509 51L381 -11Q378 -12 375 -12Q364 -12 355.0 12.0Q346 36 346 82V592Q346 626 340.0 642.0Q334 658 316 658Q308 658 298.0 654.5Q288 651 276 646Q272 644 269.0 650.0Q266 656 269 657L409 724Q411 725 413 725Q417 725 422.0 721.0Q427 717 427 714Z" fill="#f4f0e8"/></g><g transform="translate(41.794 38.785) scale(0.02581 -0.02581)"><path d="M666 625Q669 625 669.0 619.0Q669 613 666 613Q631 613 601.0 586.0Q571 559 552 508L357 1Q356 -3 346.5 -3.0Q337 -3 335 1L82 542Q65 578 47.0 595.5Q29 613 3 613Q0 613 0.0 619.0Q0 625 3 625Q16 625 24.5 624.0Q33 623 45.5 622.5Q58 622 79 622Q127 622 157.5 622.5Q188 623 208.5 624.0Q229 625 245 625Q248 625 248.0 619.0Q248 613 245 613Q203 613 188.5 592.0Q174 571 193 532L386 114L345 45L525 512Q542 557 527.0 585.0Q512 613 461 613Q458 613 458.0 619.0Q458 625 461 625Q488 625 513.0 623.5Q538 622 578 622Q606 622 623.5 623.5Q641 625 666 625Z" fill="#f4f0e8"/></g><circle cx="32.000" cy="45.185" r="1.152" fill="#ccb07a"/></svg>